# xmcd
#
# Track frame offsets: 
#        150
#        5180
#        24880
#        44728
#        61195
#        80250
#        93940
#        107423
#        123098
#        139483
#        158340
#        171400
#        191735
#
# Disc length: 2772 seconds
#
# Revision: 0
# Processed by: cddbd v1.5.2PL0 Copyright (c) Steve Scherf et al.
# Submitted via: ExactAudioCopy v0.99pb5
#
DISCID=a10ad20d
DTITLE=Bomb Threat - Bass-N-Tha-Jungle
DYEAR=1995
DGENRE=Beat
TTITLE0=Bomb Threat Intro
TTITLE1=Bomb Threat-Let the Bass Control Your Mind
TTITLE2=Kicks -n- Snares (Cajun Bass Mix)
TTITLE3=Feelin' Like Dynamight! (The Revenge of Mr. Kirks Son)
TTITLE4=A Journey Into Jungle Bass
TTITLE5=Worship the Machine
TTITLE6=170 BPMs
TTITLE7=Bomb Threat Stylee
TTITLE8=Rat Race
TTITLE9=You Got Life, Kid
TTITLE10=Composition Technician with a B-Boy's Mind
TTITLE11=It's the Power (Quad Maximus)
TTITLE12=Computer Rule
EXTD=
EXTT0=
EXTT1=
EXTT2=
EXTT3=
EXTT4=
EXTT5=
EXTT6=
EXTT7=
EXTT8=
EXTT9=
EXTT10=
EXTT11=
EXTT12=
PLAYORDER=
